<?xml version="1.0" ?><svg viewBox="0 0 64 64" xmlns="http://www.w3.org/2000/svg"><defs><style>.cls-1{fill:#655e66;}.cls-2{fill:#e29375;}.cls-3{fill:#e7a990;}.cls-4{fill:#f7f8fa;}.cls-5{fill:#94d8e5;}</style></defs><g data-name="Clown Fish" id="Clown_Fish"><path class="cls-1" d="M49.14,47.68c-1.27,2.82-3.34,6.18-6.17,7-3.13.92-4.23-1.72-4.62-3.87l-6.14,0c-2.59,1.66-6.36,3.51-9.35,2.65-3.29-.94-3.07-3.8-2.11-6.15Z" id="path270060-7"/><path class="cls-2" d="M26.54,29.61c-3.08-.15-7.38-.29-9.54,1.95-2.38,2.46-.76,4.82,1.24,6.38l3.44,2.63,2.75-1.24L30,30Z" id="path270473-9"/><path class="cls-2" d="M42.64,23.4c-2.52-1.8-6-3.68-8.86-3-3.17.76-2.69,4-2,6.09Z" id="path270475-2"/><path class="cls-3" d="M12.84,40.83h-.18a9.12,9.12,0,0,0-2.68.28c-1.85.7-2.52,3.61-1.51,6.63s3.29,4.95,5.19,4.41c1.28-.43,3.58-2.26,5.28-4.07l.47-2.94,5.68,4.31a27.62,27.62,0,0,0,4.19,1l3-1L36,50.91a31.64,31.64,0,0,0,9.2-1.23l.29-.11,1.63-1.78,3-.89c4.39-3.63,7-9.55,5.27-14.83-1.84-5.51-7.93-8.7-13.87-8.71a15.54,15.54,0,0,0-4.86.76l-.23.09L35,26.1l-3.08.35a39.8,39.8,0,0,0-3.88,2.64L26.8,31.78l-2.67.7a22.87,22.87,0,0,0-5.07,6.85l.23,3.19Z" id="path186849"/><path class="cls-4" d="M19.06,39.33a9.53,9.53,0,0,0-.68,2.24,23.69,23.69,0,0,0-5.54-.74c2.09.52,3,2.3,4.18,3.77a14.69,14.69,0,0,1,1.92,3.48c.43-.46.83-.92,1.16-1.35a12.88,12.88,0,0,0,5,2.72h0c-.19-.45-.37-.9-.56-1.36a26.84,26.84,0,0,0-3.41-6.61A13,13,0,0,0,19.06,39.33Z" id="path271677-0"/><path class="cls-4" d="M28.05,29.09a40.71,40.71,0,0,0-3.92,3.39l.65.83A23,23,0,0,1,27.35,37a4.33,4.33,0,0,1,.44,3.28,13.9,13.9,0,0,0,1.49,10.17h0a41.24,41.24,0,0,0,6.76.49c-1.81-2.16-4.16-5.81-3.25-9.4A9.91,9.91,0,0,0,32,34.7a24.81,24.81,0,0,0-3.15-4.58c-.28-.37-.54-.71-.77-1Z" id="path274935-3"/><path class="cls-4" d="M36.49,24.21a25.32,25.32,0,0,0-4.56,2.24,20.27,20.27,0,0,0,3.75,5.78c3.36,3.7,4.08,5.82,4.81,8.23l2.3,5.59a22.46,22.46,0,0,0,2.74,3.52,15.79,15.79,0,0,0,4.65-2.67c-4.35-3.54-8.31-10.32-8.57-15.57a33,33,0,0,0-2.11-2.56A15.61,15.61,0,0,1,36.49,24.21Z" id="path274927-9"/><path class="cls-1" d="M12.33,40.83a8.79,8.79,0,0,0-2.35.28c-1.85.7-2.52,3.61-1.51,6.63s3.29,4.95,5.19,4.41a7.23,7.23,0,0,0,1.68-.94c-1.46-.48-2.88-2.11-3.62-4.33C10.89,44.4,11.19,42,12.33,40.83Z" id="path276223-8"/><path class="cls-5" d="M55.06,17.23a3.49,3.49,0,1,1-3.49-3.49A3.49,3.49,0,0,1,55.06,17.23Z" id="path277996-9"/><path class="cls-5" d="M25.14,19.72a4.56,4.56,0,1,1-4.55-4.56A4.55,4.55,0,0,1,25.14,19.72Z" id="path277998-73"/><path class="cls-5" d="M37.5,12.09a3,3,0,1,1-3-3A3,3,0,0,1,37.5,12.09Z" id="path278000-6"/><path class="cls-2" d="M43.79,38.71c-1.89,1-5.24,2.75-6.1,3.37a1.6,1.6,0,0,0,0,2.76,7.42,7.42,0,0,0,4.53,1.31,5.53,5.53,0,0,0,4.08-3.23Z" id="path275618-6"/><path class="cls-1" d="M49.77,29.49A2.1,2.1,0,1,1,47.2,28,2.1,2.1,0,0,1,49.77,29.49Z" id="path273716-2"/><path class="cls-2" d="M55.23,33.89l-2.92.79a1,1,0,0,0-.7,1.22,1,1,0,0,0,1.22.71l2.92-.78a1,1,0,0,0,.71-1.23h0A1,1,0,0,0,55.23,33.89Z" id="path273854"/><path class="cls-2" d="M41.57,27.72a1,1,0,0,0-1,1h0c-.47,11.66,8.95,19.06,8.95,19.06a1,1,0,1,0,1.24-1.57s-8.61-6.87-8.19-17.41A1,1,0,0,0,41.57,27.72Z" id="path275447"/></g></svg>