<?xml version="1.0" ?><svg viewBox="0 0 64 64" xmlns="http://www.w3.org/2000/svg"><defs><style>.cls-1{fill:#dd5891;}.cls-2{fill:#eaaade;}.cls-3{fill:#f7f8fa;}.cls-4{fill:#655e66;}.cls-5{fill:#756d78;}</style></defs><g id="Coral"><path class="cls-1" d="M34.78,46.79a7.84,7.84,0,0,1,.83-.8,20.85,20.85,0,0,1,4.65-2.44,12.07,12.07,0,0,0,5.51-4c1.4-2,1.9-4.83,1.46-8.38a17.61,17.61,0,0,0,3.22-1.7,10.71,10.71,0,0,0,3.23-3.21,7.58,7.58,0,0,0,1-5.37l-1.43-7.48a2.6,2.6,0,0,0-5.1,1l1.43,7.48a2,2,0,0,1-.32,1.65,6.21,6.21,0,0,1-1.72,1.65,11.4,11.4,0,0,1-1.15.67C44.63,15.06,43.65,11,43.65,11a2.62,2.62,0,0,0-2.33-2h0a2.47,2.47,0,0,0-.81.07,2.58,2.58,0,0,0-1.91,3.13s1.18,4.89,3.41,19c.5,3.15.05,4.55-.53,5.4A6.16,6.16,0,0,1,39,38.39a94.42,94.42,0,0,0-1.58-11,2.6,2.6,0,1,0-5.07,1.13A90.6,90.6,0,0,1,34,40.8,14.59,14.59,0,0,0,32.32,42l-.24.2-2.68.68.44,5.06S34.75,48.29,34.78,46.79Z" id="path187557-7"/><path class="cls-2" d="M32.3,45.21a18.12,18.12,0,0,0-1.77-8.12c-1.62-3.23-4.09-4.93-5.34-6.4s-1.85-2.26-1-5.56c.28-1,.53-2,.77-3a4.11,4.11,0,0,1,.9-.22A23.53,23.53,0,0,0,29,21.33a7.76,7.76,0,0,0,3.86-2.53,11.58,11.58,0,0,0,2.19-5.63,2.6,2.6,0,0,0-5.14-.78,6.61,6.61,0,0,1-1.1,3.16,2.18,2.18,0,0,1-1.28.8,11.64,11.64,0,0,1-1.32.25c.7-3.43,1-5.63,1-5.63A2.6,2.6,0,0,0,25.06,8h0a2.58,2.58,0,0,0-2.94,2.19A133.56,133.56,0,0,1,19.2,23.79a11.61,11.61,0,0,0,.16,7,4.43,4.43,0,0,1-2.85-1.34c-1-1.06-1.55-3.08-1.15-6.23a2.6,2.6,0,1,0-5.15-.67c-.52,4.06.09,7.8,2.47,10.41s6,3.46,10.24,2.92a14.54,14.54,0,0,1,3,3.54A13.09,13.09,0,0,1,27,45.08Z" id="path187212-9"/><path class="cls-3" d="M45,51.4a38.18,38.18,0,0,1,4.94-2.23,2.59,2.59,0,0,0,.36-4.78,2.51,2.51,0,0,0-1-.27h0a2.49,2.49,0,0,0-1,.12,47.23,47.23,0,0,0-5.89,2.65Z" id="path188453-7"/><path class="cls-3" d="M18.58,46a66.06,66.06,0,0,0-4.89-6.56A2.6,2.6,0,0,0,10,39.24a2.6,2.6,0,0,0-.16,3.67,58.38,58.38,0,0,1,4.73,6.42Z" id="path190813-6"/><path class="cls-4" d="M38.88,45.8a6.08,6.08,0,0,0-3.78,1.31l1.28,7.75c.76,0,1.61,0,2.5,0,3.37,0,6.1.43,6.1-2.94A6.11,6.11,0,0,0,38.88,45.8Z" id="path552278"/><path class="cls-4" d="M20.14,45.8A6.11,6.11,0,0,0,14,51.91c0,3.37,2.73,2.94,6.11,2.94.88,0,1.73,0,2.49,0l1.28-7.75A6.07,6.07,0,0,0,20.14,45.8Z" id="path186329-1"/><path class="cls-5" d="M37.14,52.3c0,4.22-3.42,3.68-7.63,3.68s-7.64.54-7.64-3.68a7.64,7.64,0,0,1,15.27,0Z" id="path186788-5"/></g></svg>