<?xml version="1.0" ?><svg viewBox="0 0 64 64" xmlns="http://www.w3.org/2000/svg"><defs><style>.cls-1{fill:#756d78;}.cls-2{fill:#655e66;}.cls-3{fill:#e29375;}.cls-4{fill:#e7a990;}.cls-5{fill:#ebafa5;}.cls-6{fill:#f1ccc6;}.cls-7{fill:#f7f8fa;}</style></defs><g data-name="Hermit Crab" id="Hermit_Crab"><path class="cls-1" d="M23.84,18.1c.83-5,7.76-10.56,13.21-10.07s11.28,7.21,11.22,12.25C48.27,20.28,24.77,21.32,23.84,18.1Z" id="path89289-1"/><path class="cls-2" d="M19.08,27.69A8.77,8.77,0,0,1,18.42,24c.53-6,8.75-7.64,17.87-6.83s16.92,3.9,16.38,9.88a6.86,6.86,0,0,1-.56,2.06A2.24,2.24,0,0,1,50,30.51C43.78,30.3,19.6,29.35,19.08,27.69Z" id="path86183-6"/><path class="cls-1" d="M40.54,25.43C49.14,27.19,53,31.22,53.69,36a3.8,3.8,0,0,1-1.58,3.65L33.83,42S18.16,43.65,16.4,38.62a5,5,0,0,1-1.06-3.51c.38-4.25,2.86-7.79,8.17-9.48l4.84-.94a39.45,39.45,0,0,1,7.27,0h0Z" id="path106820-2"/><path class="cls-3" d="M48.25,38.61a9.36,9.36,0,0,0-3,.43c-.41.14-.81.29-1.17.45l3.77,5.6a2,2,0,0,1,.48,0c2.71.47,3.17,2.92,3.05,4.6a21.05,21.05,0,0,1-.86,4.07,1.71,1.71,0,0,0,1.11,2.14,1.89,1.89,0,0,0,2.13-1.11c2.76-4.53,2.77-10.92.06-13.9a7.56,7.56,0,0,0-4.43-2.21A8.93,8.93,0,0,0,48.25,38.61Z" id="path97364"/><path class="cls-3" d="M15.75,38.61a8.93,8.93,0,0,0-1.14.1,7.56,7.56,0,0,0-4.43,2.21c-2.71,3-2.7,9.37.06,13.9a1.89,1.89,0,0,0,2.13,1.11,1.71,1.71,0,0,0,1.11-2.14,21.05,21.05,0,0,1-.86-4.07c-.12-1.68.34-4.13,3.05-4.6a2,2,0,0,1,.48,0l3.77-5.6c-.36-.16-.76-.31-1.17-.45A9.36,9.36,0,0,0,15.75,38.61Z" id="path96792-7"/><path class="cls-4" d="M42.28,44.94c1.16,1,1.38,3.56,1.29,4.78a21.05,21.05,0,0,1-.86,4.07,1.7,1.7,0,0,0,1.11,2.14A1.89,1.89,0,0,0,46,54.82c2.76-4.53,2.77-10.92.06-13.9a7.38,7.38,0,0,0-2.71-1.77Z" id="path89757-8"/><path class="cls-4" d="M21.72,44.94c-1.16,1-1.38,3.56-1.29,4.78a21.05,21.05,0,0,0,.86,4.07,1.71,1.71,0,0,1-1.11,2.14,1.89,1.89,0,0,1-2.13-1.11c-2.76-4.53-2.77-10.92-.06-13.9a7.38,7.38,0,0,1,2.71-1.77Z" id="path103313-2"/><path class="cls-5" d="M25.8,24.78A1,1,0,0,0,25.1,26h0l1.45,5.41a1,1,0,1,0,1.93-.51h0L27,25.48A1,1,0,0,0,25.8,24.78Z" id="path106211"/><path class="cls-5" d="M38.2,24.78a1,1,0,0,0-1.23.7L35.52,30.9a1,1,0,0,0,.71,1.22h0a1,1,0,0,0,1.22-.71L38.9,26a1,1,0,0,0-.7-1.22Z" id="path106296"/><path class="cls-6" d="M43.53,41.33c0,6.09-5.17,4.45-11.53,4.45s-11.53,1.64-11.53-4.45A11.29,11.29,0,0,1,32,30.29,11.29,11.29,0,0,1,43.53,41.33Z" id="path101816-9"/><path class="cls-7" d="M28.36,24.69a2.49,2.49,0,1,1-3.05-1.76A2.49,2.49,0,0,1,28.36,24.69Z" id="path105812-2"/><path class="cls-7" d="M35.65,24.69a2.48,2.48,0,1,0,3-1.76A2.48,2.48,0,0,0,35.65,24.69Z" id="path106294-3"/></g></svg>