<?xml version="1.0" ?><svg viewBox="0 0 64 64" xmlns="http://www.w3.org/2000/svg"><defs><style>.cls-1{fill:#dbe4eb;}.cls-2{fill:#e7ecf0;}.cls-3{fill:#544f56;}.cls-4{fill:#f7f8fa;}</style></defs><g id="Dolphin"><path class="cls-1" d="M23.35,14.64s-2.61-3.75-1.7-5.44S30.91,7,33.83,12.1l-5.46,6.6Z" id="path92746-5"/><path class="cls-2" d="M38,27.68h13.2a2.27,2.27,0,1,0,0-4.53,2.17,2.17,0,0,1-2-1.86,11.19,11.19,0,0,0-11-9.19H33.83a22.94,22.94,0,0,0-19.49,35l-.47.13a4.47,4.47,0,0,0-3.17,5.49l.64,2.39a1.15,1.15,0,0,0,1.4.81l2.67-.71A4.19,4.19,0,0,0,18.12,53a4.14,4.14,0,0,0,3.46.59l2.67-.71a1.14,1.14,0,0,0,.8-1.4l-.64-2.4a4.47,4.47,0,0,0-5.49-3.17l-1.46.4c0-.32,0-.63,0-1A17.68,17.68,0,0,1,28.82,28.83Z" id="path84800-4"/><path class="cls-1" d="M34.22,32.3l-.13,1.06a1.13,1.13,0,0,0,1.51,1.33,14.1,14.1,0,0,0,8.18-7s-2-3.64-2.54-3.35-7.43,1-7.43,1Z" id="path89751-2"/><path class="cls-3" d="M43.47,17.56a1.72,1.72,0,1,1-1.71-1.72A1.72,1.72,0,0,1,43.47,17.56Z" id="path93240-4"/><path class="cls-4" d="M33.45,20.61c-9.18.17-20.45,8.9-15.57,19.89l.19.15A17.75,17.75,0,0,1,28.82,28.83L38,27.68h5l.26-.46C41.92,22.49,37.93,20.53,33.45,20.61Z" id="path93378-7"/><path class="cls-2" d="M38.73,26a14.2,14.2,0,0,1-8.66,8.59c-1.07.37-1.87-.4-1.74-1.52l.6-5.11a4.22,4.22,0,0,1,4.2-3.74h4.3A1.27,1.27,0,0,1,38.73,26Z" id="path89004-5"/></g></svg>