<?xml version="1.0" ?><svg viewBox="0 0 64 64" xmlns="http://www.w3.org/2000/svg"><defs><style>.cls-1{fill:#f5d96d;}.cls-2{fill:#94d8e5;}.cls-3{fill:#f6e782;}.cls-4{fill:#756d78;}</style></defs><g data-name="Yellow Tang" id="Yellow_Tang"><path class="cls-1" d="M40.09,24.73c-4.57-8.43-12.85-10.59-19.62-4.41-7.73,7.05-4.58,18.38-4.58,18.38l.84,3.15S21,50.5,25.33,53.53c3.7,2.59,9.41-.34,9.45-5.9Z" id="path62581-1"/><path class="cls-2" d="M56,26.49a2.82,2.82,0,1,1-2.82-2.82A2.82,2.82,0,0,1,56,26.49Z" id="path65656-5"/><path class="cls-2" d="M50.93,13.82a4.31,4.31,0,1,1-4.31-4.3A4.31,4.31,0,0,1,50.93,13.82Z" id="path65761-4"/><path class="cls-2" d="M17,15.07a2.82,2.82,0,1,1-2.82-2.81A2.82,2.82,0,0,1,17,15.07Z" id="path71055-76"/><path class="cls-3" d="M37.77,47.11c-4.32,1.16-10.49.94-17.4-4-1.15-.83-3-2.51-3.64-1.22C15.8,43.82,15,46.51,13,47a2.75,2.75,0,0,1-3.39-2L8.1,39.47a2.76,2.76,0,0,1,2-3.39c2-.53,4,1.37,5.84,2.62,1.16.81,1.95-1.59,2.54-2.88,3.49-7.77,8.73-11,13-12.2a12.68,12.68,0,0,1,13.86,6.22,3.42,3.42,0,0,0,3.78,1.92,1.88,1.88,0,1,1,1,3.63l-2,.54a2.59,2.59,0,0,0-1.66,1.84A13,13,0,0,1,37.77,47.11Z" id="path61850-6"/><path class="cls-4" d="M41,30.64a1.92,1.92,0,1,1-2.34-1.35A1.92,1.92,0,0,1,41,30.64Z" id="path54162-0"/><path class="cls-1" d="M34.23,36.71a38.92,38.92,0,0,0-6.09.51A1.57,1.57,0,0,0,27,39.66a7.22,7.22,0,0,0,3.42,3.06c2.9,1,5.45-1.2,5.45-1.2Z" id="path53183-2"/><path class="cls-1" d="M34.58,28.64a1,1,0,0,0-1.24.68A14.22,14.22,0,0,0,41,46.18a1,1,0,0,0,1.33-.48h0a1,1,0,0,0-.48-1.33h0a12.25,12.25,0,0,1-6.58-14.49,1,1,0,0,0-.68-1.24Z" id="path52696"/><path class="cls-3" d="M29.47,46.26a1,1,0,0,0-1.21.72h0l-.81,3.22a1,1,0,0,0,.73,1.22h0a1,1,0,0,0,1.21-.73l.81-3.22a1,1,0,0,0-.72-1.21Z" id="path63796"/><path class="cls-3" d="M25.84,45.07a1,1,0,0,0-1.31.53h0L23.4,48.26a1,1,0,0,0,.53,1.31,1,1,0,0,0,1.31-.52l1.13-2.67a1,1,0,0,0-.53-1.31Z" id="path64693"/><path class="cls-3" d="M22.1,43.47a1.06,1.06,0,0,0-.58.5l-.69,1.38a1,1,0,1,0,1.78.9h0l.69-1.38a1,1,0,0,0-.44-1.34A1,1,0,0,0,22.1,43.47Z" id="path64689"/><path class="cls-3" d="M17.81,30.16A1,1,0,0,0,17.73,32h0L20,33.06a1,1,0,0,0,1.33-.48h0a1,1,0,0,0-.48-1.32L18.57,30.2A1,1,0,0,0,17.81,30.16Z" id="path64685"/><path class="cls-3" d="M19.92,26.18a1,1,0,0,0-1.42.08h0a1,1,0,0,0,.09,1.41h0l3,2.69A1,1,0,0,0,23,30.28h0a1,1,0,0,0-.08-1.42h0Z" id="path64681"/><path class="cls-3" d="M22.42,22.58a1,1,0,0,0-.73.21,1,1,0,0,0-.17,1.4h0l2.67,3.41a1,1,0,0,0,1.4.17h0a1,1,0,0,0,.17-1.41h0L23.09,23A1,1,0,0,0,22.42,22.58Z" id="path64677"/><path class="cls-3" d="M26.23,19.91a1,1,0,0,0-.48,1.33L27.5,25a1,1,0,1,0,1.82-.84h0l-1.75-3.76a1,1,0,0,0-1.33-.48Z" id="path64673"/><path class="cls-3" d="M30.81,18.92a1,1,0,0,0-.6,1.28h0l1.3,3.58a1,1,0,0,0,1.28.6h0a1,1,0,0,0,.6-1.28h0l-1.3-3.58a1,1,0,0,0-1.28-.6Z" id="path64671"/></g></svg>