<?xml version="1.0" ?><svg viewBox="0 0 64 64" xmlns="http://www.w3.org/2000/svg"><defs><style>.cls-1{fill:#655e66;}.cls-2{fill:#756d78;}.cls-3{fill:#f7f8fa;}.cls-4{fill:#94d8e5;}</style></defs><g id="Whale"><path class="cls-1" d="M40.87,30.1c-1.56-5.8-8.78-4.42-9.91-3.62s-.24,1.76,1.56,6.53Z" id="path30227-2-8"/><path class="cls-2" d="M50.65,47.76c3-.77,5.42-2.23,5.42-4.92C56.07,38.08,53.14,30,43.14,30c-9,0-14.15,5.16-20,11.77-2.3,2.57-5.77-.53-5.77-4V36.28a2.07,2.07,0,0,1,1.56-1.83,5,5,0,0,0,3.49-4.79v-1a1.7,1.7,0,0,0-1.71-1.71h-1.6a3.91,3.91,0,0,0-3.92,3.92,3.91,3.91,0,0,0-3.91-3.92H9.64a1.7,1.7,0,0,0-1.71,1.71v1a5,5,0,0,0,3.49,4.79A2.07,2.07,0,0,1,13,36.28v1.49A10.8,10.8,0,0,0,23.76,48.54h2.6Z" id="path12737-5-9"/><path class="cls-3" d="M50.07,36.65c-.23,1.33-2.71,2-5.53,1.48s-4.9-2-4.66-3.32,2.71-2,5.53-1.48S50.31,35.33,50.07,36.65Z" id="path25318-5-0"/><path class="cls-3" d="M30.34,44.58a4,4,0,0,0-4,4H36.9l7.74,0a28,28,0,0,0,6-.76V46.29a1.7,1.7,0,0,0-1.71-1.71Z" id="rect25444-6-6"/><path class="cls-1" d="M40.48,44.58h2.79A1.7,1.7,0,0,1,45,46.29v.44a5,5,0,0,1-5,5H38.6a1.7,1.7,0,0,1-1.7-1.71V48.17A3.58,3.58,0,0,1,40.48,44.58Z" id="rect24080-3-2"/><path class="cls-4" d="M41.91,18.2a3.16,3.16,0,0,0-2.08.79,3.06,3.06,0,0,0-1,2.28,1,1,0,1,0,2,0,.93.93,0,0,1,.31-.79,1.31,1.31,0,0,1,.78-.28,1.21,1.21,0,0,1,.76.25,1,1,0,0,1,.31.82v4.15a1,1,0,1,0,2,0V21.27a3,3,0,0,0-3.1-3.07Z" id="path33966-9"/><path class="cls-4" d="M52.28,18.2a3,3,0,0,0-3.1,3.07v4.15a1,1,0,0,0,2,0V21.27a1,1,0,0,1,.31-.82,1.21,1.21,0,0,1,.76-.25,1.31,1.31,0,0,1,.78.28.93.93,0,0,1,.31.79,1,1,0,0,0,2,0,3.06,3.06,0,0,0-1-2.28A3.18,3.18,0,0,0,52.28,18.2Z" id="path34295-1"/><path class="cls-4" d="M43.19,11.24a3.14,3.14,0,0,0-2.08.79,3,3,0,0,0-1,2.28,1,1,0,1,0,2,0,.93.93,0,0,1,.31-.79,1.27,1.27,0,0,1,.78-.28,1.21,1.21,0,0,1,.76.25,1,1,0,0,1,.31.82v1.91a1,1,0,0,0,2,0V14.31a3,3,0,0,0-3.09-3.07Z" id="path34590-7"/><path class="cls-4" d="M51,11.24a3.09,3.09,0,0,0-2.1.75,3.05,3.05,0,0,0-1,2.32v1.91a1,1,0,0,0,2,0V14.31a1,1,0,0,1,.31-.82,1.19,1.19,0,0,1,.75-.25,1.23,1.23,0,0,1,.78.28.93.93,0,0,1,.32.79,1,1,0,0,0,2,0,3.05,3.05,0,0,0-1-2.28A3.16,3.16,0,0,0,51,11.24Z" id="path34592-0"/><path class="cls-4" d="M47.09,18.22a1,1,0,0,0-1,1v6.16a1,1,0,0,0,2,0V19.22A1,1,0,0,0,47.09,18.22Z" id="path35822-9"/></g></svg>