<?xml version="1.0" ?><svg viewBox="0 0 64 64" xmlns="http://www.w3.org/2000/svg"><defs><style>.cls-1{fill:#e29375;}.cls-2{fill:#e7a990;}.cls-3{fill:#544f56;}.cls-4{fill:#f7f8fa;}.cls-5{fill:#e7ecf0;}</style></defs><g id="Seahorse"><path class="cls-1" d="M21.72,10.12a1,1,0,0,0-.59.49A1,1,0,0,0,21.54,12l3.33,1.76A1,1,0,1,0,25.81,12l-3.33-1.77A1,1,0,0,0,21.72,10.12Z" id="path191434"/><path class="cls-1" d="M20.62,15.69a1,1,0,1,0-.22,2l4.48.49a1,1,0,0,0,.21-2Z" id="path192249"/><path class="cls-1" d="M24.62,50.29l-2.87,2.17a1,1,0,0,0-.19,1.4h0a1,1,0,0,0,1.4.19l2.87-2.16a1,1,0,0,0,.19-1.4,1,1,0,0,0-1.4-.2Z" id="path192245"/><path class="cls-1" d="M23.31,46.3l-2.79.33a1,1,0,0,0,.23,2l2.79-.33a1,1,0,0,0,.88-1.11h0a1,1,0,0,0-1.11-.88Z" id="path192241"/><path class="cls-1" d="M21.57,40.47a1,1,0,0,0-1.19.78h0a1,1,0,0,0,.78,1.18h0l3.91.82a1,1,0,0,0,.41-2h0Z" id="path192237"/><path class="cls-1" d="M27.45,34.17c-1.48,1.3-4.29,3.77-6.05,3.77-3,0-3.91-2.42-3.91-5.42s.91-5.41,3.91-5.41c1.79,0,4.62,2.52,6.11,3.81,0,0,1.74.42,1.58.82S27.45,34.17,27.45,34.17Z" id="path193137-4"/><path class="cls-2" d="M33.31,22.49a7.2,7.2,0,0,0,2.89-1.24l8.6,1.58a1,1,0,0,0,1.12-.65l.48-1.39a1.65,1.65,0,0,0-1.2-2.17l-.45-.14A26.91,26.91,0,0,1,40.66,16a5.56,5.56,0,0,1-1.72-2.72,7.3,7.3,0,0,0-7-5.23c-3.44,0-6.56,1.1-8.44,5.21-2.22,4.86.75,9.93,2.62,13.4A12,12,0,0,1,24.7,40.14C20.4,44.44,21.21,56,30.5,56c8.81,0,8-12.71-.37-12.08l6.52-4.46Z" id="path179089-4"/><path class="cls-3" d="M33.4,13.34a2,2,0,1,1-2-2.05A2.05,2.05,0,0,1,33.4,13.34Z" id="path192675-1"/><path class="cls-4" d="M33.31,22.49l-1.07,1.89a4.25,4.25,0,0,0,.06,3.7c1.47,2.92,3.28,9-2.16,15.84a12.25,12.25,0,0,0,9.77-11.58C39.9,28.41,38.5,24.56,33.31,22.49Z" id="path187530-3"/><path class="cls-5" d="M36.77,37.29a1,1,0,0,0-.9,1.79l1.44.71a1,1,0,0,0,1.34-.44h0A1,1,0,0,0,38.2,38h0Z" id="path188318"/><path class="cls-5" d="M37.61,33.54a1,1,0,0,0-1.16.8h0a1,1,0,0,0,.81,1.16h0l2.16.38a1,1,0,1,0,.35-2Z" id="path189075"/><path class="cls-5" d="M37.85,25.25l-2.16.83a1,1,0,0,0-.57,1.29h0a1,1,0,0,0,1.29.58l2.16-.84a1,1,0,0,0,.57-1.29h0a1,1,0,0,0-1.29-.57Z" id="path189071"/><path class="cls-5" d="M39.58,29.31l-2.22.42a1,1,0,0,0,.37,2h0L40,31.27a1,1,0,1,0-.37-2Z" id="path189067"/></g></svg>