<?xml version="1.0" ?><svg viewBox="0 0 64 64" xmlns="http://www.w3.org/2000/svg"><defs><style>.cls-1{fill:#dd5891;}.cls-2{fill:#f1ccc6;}.cls-3{fill:#ebafa5;}</style></defs><g id="Starfish"><path class="cls-1" d="M34.37,10.45l4.82,8.81a6.83,6.83,0,0,0,4.74,3.44l9.87,1.86a2.7,2.7,0,0,1,1.46,4.51l-6.89,7.31a6.82,6.82,0,0,0-1.81,5.56l1.28,10A2.7,2.7,0,0,1,44,54.7l-9.08-4.3a6.83,6.83,0,0,0-5.86,0L20,54.7a2.7,2.7,0,0,1-3.83-2.79l1.28-10a6.82,6.82,0,0,0-1.81-5.56L8.74,29.07a2.7,2.7,0,0,1,1.46-4.51l9.87-1.86a6.83,6.83,0,0,0,4.74-3.44l4.82-8.81A2.7,2.7,0,0,1,34.37,10.45Z" id="path4905-3"/><path class="cls-2" d="M32,13.21l3.93,7.2a11.63,11.63,0,0,0,8,5.83L52,27.76l-5.63,6a11.58,11.58,0,0,0-3.07,9.44l1.05,8.14L37,47.8a11.57,11.57,0,0,0-9.92,0l-7.42,3.51,1.05-8.14a11.58,11.58,0,0,0-3.07-9.44l-5.63-6L20,26.24a11.63,11.63,0,0,0,8-5.83Z" id="path6249-6"/><path class="cls-1" d="M32,28.41l4.42,3.22-1.69,5.2H29.27l-1.69-5.2Z" id="path6988-7"/><path class="cls-3" d="M32,23.66a1,1,0,1,0,1,1A1,1,0,0,0,32,23.66Z" id="path7126"/><path class="cls-3" d="M32,20a1,1,0,1,0,1,1A1,1,0,0,0,32,20Z" id="path7304"/><path class="cls-3" d="M41.14,30.67A1,1,0,0,0,39.91,30h0a1,1,0,0,0-.71,1.22h0a1,1,0,0,0,1.94-.51Z" id="path7310"/><path class="cls-3" d="M44.65,29.72a1,1,0,0,0-1.93.52h0a1,1,0,1,0,1.93-.52Z" id="path7312"/><path class="cls-3" d="M37.31,40.94a1,1,0,0,0,.27-1.39,1,1,0,0,0-1.66,1.12A1,1,0,0,0,37.31,40.94Z" id="path7316"/><path class="cls-3" d="M39.36,44a1,1,0,0,0,.26-1.39h0A1,1,0,1,0,39.36,44Z" id="path7318"/><path class="cls-3" d="M26.69,40.94a1,1,0,1,1,1.39-.26A1,1,0,0,1,26.69,40.94Z" id="path7322"/><path class="cls-3" d="M24.64,44a1,1,0,0,1-.26-1.39h0A1,1,0,1,1,24.64,44Z" id="path7324"/><path class="cls-3" d="M22.86,30.67A1,1,0,0,1,24.09,30h0a1,1,0,0,1,.71,1.22h0a1,1,0,0,1-1.94-.51Z" id="path7328"/><path class="cls-3" d="M19.35,29.72a1,1,0,0,1,1.93.52h0a1,1,0,1,1-1.93-.52Z" id="path7330"/><path class="cls-1" d="M32,26.24a1,1,0,0,0-1,1v2.52a1,1,0,1,0,2,0V27.24A1,1,0,0,0,32,26.24Z" id="path7830"/><path class="cls-1" d="M37.31,30.36,34.78,31a1,1,0,1,0,.47,1.94h0l2.54-.62a1,1,0,1,0-.48-1.94Z" id="path8078"/><path class="cls-1" d="M34.08,34.51A1,1,0,0,0,33,36l1.53,2.42a1,1,0,0,0,1.38.3h0a1,1,0,0,0,.31-1.37L34.71,35A1.05,1.05,0,0,0,34.08,34.51Z" id="path8306"/><path class="cls-1" d="M26.69,30.36a1,1,0,0,0-1.21.73h0a1,1,0,0,0,.73,1.21l2.54.62A1,1,0,0,0,30,32.18h0a1,1,0,0,0-.73-1.2Z" id="path8749"/><path class="cls-1" d="M29.92,34.51a1.05,1.05,0,0,0-.63.44l-1.53,2.42a1,1,0,0,0,1.69,1.07h0L31,36a1,1,0,0,0-.3-1.38A1,1,0,0,0,29.92,34.51Z" id="path8751"/></g></svg>