<?xml version="1.0" ?><svg viewBox="0 0 64 64" xmlns="http://www.w3.org/2000/svg"><defs><style>.cls-1{fill:#756d78;}.cls-2{fill:#f1ccc6;}.cls-3{fill:#aaddb4;}.cls-4{fill:#92d39d;}.cls-5{fill:#655e66;}</style></defs><g id="Turtle"><path class="cls-1" d="M19.16,42.74A30.35,30.35,0,0,0,29.8,44.55a30.22,30.22,0,0,0,10.61-1.8l2.18-1.29L40.41,37.9s-6.14-4.11-6.86-4.17S17.19,37,16.72,37.2,19.16,42.74,19.16,42.74Z" id="path97414-9"/><path class="cls-2" d="M45,25.05a6.38,6.38,0,1,1,4.66,10.74l-3.51,1L43.74,33.4Z" id="path102715-90"/><path class="cls-3" d="M47.45,34.34a18.64,18.64,0,0,0-37.28,0l16.21,2.23Z" id="path101602-4"/><path class="cls-4" d="M21,16.43a1,1,0,0,0-1,1v4.4L15.31,28H11a1,1,0,1,0,0,2h4.25l2.66,4.87a1,1,0,0,0,1.36.4h0a1,1,0,0,0,.4-1.35h0L17,29l4.32-5.67,6.5,2.5v8.47a1,1,0,0,0,2,0V25.87l6.5-2.5L40.63,29,38,33.87a1,1,0,0,0,.4,1.35h0a1,1,0,0,0,1.36-.4L42.41,30h4.25a1,1,0,0,0,0-2H42.31l-4.65-6.11V17.43a1,1,0,0,0-2,0v4.05l-6.85,2.63L22,21.48V17.43A1,1,0,0,0,21,16.43Z" id="path105539"/><path class="cls-2" d="M12.29,39.08c-.25,2.56-.49,5.11-.73,7.67A1.41,1.41,0,0,0,13,48.3h2.49a1.94,1.94,0,0,0,1.79-1.53A10.17,10.17,0,0,1,25,39.08l-3.61-1.81Zm35,0,0,.19.71,7.5a1.41,1.41,0,0,1-1.41,1.55H44.1a1.94,1.94,0,0,1-1.79-1.53,10.17,10.17,0,0,0-7.7-7.69l6.66-2.16Z" id="path96301-5"/><path class="cls-5" d="M11.67,34.35H10.36a2.37,2.37,0,0,0,0,4.73l36.9,0a2.37,2.37,0,0,0,0-4.73Z" id="path83934-1"/></g></svg>